<svg id="Layer_3" data-name="Layer 3" xmlns="http://www.w3.org/2000/svg" viewBox="0 0 281.9 76.3"><title>new_logotype_01_bw</title><path d="M202.65,58.51c.73.59-4.36,10.38-6.11,11.06-1,.4-3.22-1.34-3.22-1.34s-2.16-1.76-2-2.87c.3-1.86,8.81-8.89,9.54-8.29Zm9.13,4.84-2.21-.6c-.91-.25-5.85,9.62-5.37,11.44.29,1.08,3,1.82,3,1.82s2.69.72,3.48-.07C212,74.6,212.68,63.59,211.78,63.34ZM220,13l2.21.6c.91.25,5.85-9.62,5.37-11.44-.29-1.08-3-1.82-3-1.82s-2.69-.72-3.49.07C219.82,1.7,219.12,12.72,220,13Zm-10.45.6,2.21-.6c.91-.25.21-11.26-1.12-12.59-.79-.79-3.48-.07-3.48-.07s-2.69.74-3,1.82C203.72,3.94,208.66,13.8,209.57,13.56Zm-8.7,5.68,1.78-1.44c.73-.59-4.36-10.38-6.11-11.06-1-.4-3.22,1.34-3.22,1.34s-2.16,1.76-2,2.86C191.63,12.8,200.14,19.83,200.87,19.24Zm21.36,43.51-2.21.6c-.91.25-.21,11.26,1.12,12.59.79.79,3.49.07,3.49.07s2.68-.74,3-1.82C228.08,72.37,223.14,62.5,222.23,62.75ZM238.48,8.08s-2.17-1.74-3.22-1.34c-1.76.68-6.84,10.47-6.11,11.06l1.78,1.44c.73.59,9.24-6.43,9.54-8.29C240.64,9.84,238.48,8.08,238.48,8.08Zm-7.55,49-1.78,1.44c-.73.59,4.36,10.38,6.11,11.06,1,.4,3.22-1.34,3.22-1.34s2.16-1.76,2-2.87C240.17,63.5,231.66,56.48,230.93,57.07Zm-15,1a19.89,19.89,0,1,1,19.89-19.89A19.89,19.89,0,0,1,216,58Zm11.72-20a11.83,11.83,0,1,0-11.83,11.83A11.83,11.83,0,0,0,227.67,38ZM20.73,34.72c-5.21-1.45-10.37-2-10.37-4.71,0-2.35,2.5-3.06,4.51-3.06,2.85,0,5.91,1.05,5.76,4.31h9.31c0-8.06-7.21-11.52-14.32-11.52-6.71,0-14.57,3.05-14.57,10.87,0,6.56,5.36,8.86,10.47,10.32S21.78,43,21.78,46.14c0,2.65-2.9,3.66-5.71,3.66-4,0-6.56-1.35-6.76-5.56H0C.05,53.4,7.31,57,15.52,57c7.86,0,15.57-2.9,15.57-12C31.1,38.58,25.89,36.18,20.73,34.72ZM268.17,20.5,262,44.34h-.1L255.75,20.5H242V56.26h8.76V29.12h.1l7.51,27.14h7.11L273,29.12h.1V56.26h8.76V20.5ZM151.89,48.72h0a3.79,3.79,0,1,0,0,7.58h0a3.79,3.79,0,0,0,0-7.58ZM56.64,20.5,70,56.26H60.3l-2.2-6.41H45.63l-2.25,6.41H33.81L47.18,20.5Zm-.75,22.44-4-12.52h-.1L47.78,42.94ZM174,27.76c3.91,0,6.71,1.9,7.21,5.51h9.32c-.25-8.61-8.61-13.52-16.33-13.52-10.82,0-17.83,8.26-17.83,18.63S163.35,57,174.16,57c9.06,0,15.83-5.41,16.33-14.62h-9.32C180.82,46.49,178.32,49,174,49c-6,0-8.31-5.31-8.31-10.62S168,27.76,174,27.76Zm-39.45,5.76H122.24v-13h-9.31V56.26h9.31V41.53h12.27V56.26h9.31V20.5h-9.31Zm-27.46-13H95.49L83.72,34.22V20.5H74.4V56.26h9.31v-11l3.81-4,9.62,15h11.57L93.83,34.57Z" style="fill:#fff"/></svg>